# xmcd CD database file
#
# Track frame offsets:
#	182
#	13070
#	25599
#	40484
#	54929
#	68170
#	79321
#	89185
#	104601
#	119863
#	138649
#	153116
#	163664
#	174701
#	188222
#	201015
#	214580
#	227163
#	260431
#
# Disc length: 3674 seconds
#
# Revision: 0
# Processed by: cddbd v1.5.1PL0 Copyright (c) Steve Scherf et al.
# Submitted via: CDex 1.51
#
DISCID=140e5813
DTITLE=Django Reinhardt - Integrale Django Vol.11 Disc 1
DYEAR=1940
DGENRE=Jazz
TTITLE0=Cascades
TTITLE1=Reflets
TTITLE2=Onze Heures Vingt
TTITLE3=Sur Les Bords De L'Alamo
TTITLE4=Les Yeux Noirs
TTITLE5=Begin The Beguine
TTITLE6=Swinging The Blues
TTITLE7=Petite Lili
TTITLE8=Ninouche
TTITLE9=Festival Swing
TTITLE10=Stockholm
TTITLE11=La Cigale Et La Fourmi
TTITLE12=Hungaria
TTITLE13=Out Of Nowhere (De Nulle Part)
TTITLE14=Dinette
TTITLE15=Crepescule
TTITLE16=Swing 42
TTITLE17=Fesitval Swing 1942 (part1 and part2)
TTITLE18=Premiere Idee D'Eddie
EXTD=YEAR: 1940
EXTT0=
EXTT1=
EXTT2=
EXTT3=
EXTT4=
EXTT5=
EXTT6=
EXTT7=
EXTT8=
EXTT9=
EXTT10=
EXTT11=
EXTT12=
EXTT13=
EXTT14=
EXTT15=
EXTT16=
EXTT17=
EXTT18=
PLAYORDER=
